<svg xmlns="http://www.w3.org/2000/svg" width="48.112" height="48.757" viewBox="0 0 48.112 48.757"><defs><style>.a{opacity:0.43;}.b{fill:#4786ff;}.c{fill:#ffd517;}.d{fill:#e5e5e5;}.e{fill:#210b20;}</style></defs><g transform="translate(-16 -20.804)"><g class="a" transform="translate(16 31.959)"><ellipse class="b" cx="0.5" cy="1" rx="0.5" ry="1" transform="translate(28 15.041)"/><path class="b" d="M31.727,2.938h-1.91V1.469a1.469,1.469,0,0,0-2.938,0V2.938H20.2V1.469a1.469,1.469,0,0,0-2.938,0V2.938h-6.61V1.469a1.469,1.469,0,1,0-2.938,0V2.938H5.875A5.882,5.882,0,0,0,0,8.813V31.727A5.882,5.882,0,0,0,5.875,37.6H17.112a1.469,1.469,0,1,0,0-2.938H5.875a2.941,2.941,0,0,1-2.938-2.938V8.813A2.941,2.941,0,0,1,5.875,5.875H7.712V7.344a1.469,1.469,0,0,0,2.938,0V5.875h6.61V7.344a1.469,1.469,0,0,0,2.938,0V5.875H26.88V7.344a1.469,1.469,0,0,0,2.938,0V5.875h1.91a2.941,2.941,0,0,1,2.938,2.938v8.373a1.469,1.469,0,1,0,2.938,0V8.813A5.882,5.882,0,0,0,31.727,2.938Z"/><path class="b" d="M278.887,270a8.887,8.887,0,1,0,8.887,8.887A8.9,8.9,0,0,0,278.887,270Zm0,14.835a5.949,5.949,0,1,1,5.949-5.949A5.956,5.956,0,0,1,278.887,284.835Z" transform="translate(-250.17 -250.17)"/><path class="b" d="M374.6,333.011h-.661v-1.542a1.469,1.469,0,1,0-2.938,0v3.011a1.469,1.469,0,0,0,1.469,1.469h2.13a1.469,1.469,0,1,0,0-2.938Z" transform="translate(-343.753 -305.764)"/><circle class="b" cx="1" cy="1" r="1" transform="translate(21 15.041)"/><circle class="b" cx="1" cy="1" r="1" transform="translate(15 21.041)"/><ellipse class="b" cx="1.5" cy="1" rx="1.5" ry="1" transform="translate(8 15.041)"/><ellipse class="b" cx="1.5" cy="1" rx="1.5" ry="1" transform="translate(8 21.041)"/><ellipse class="b" cx="1.5" cy="0.5" rx="1.5" ry="0.5" transform="translate(8 28.041)"/><ellipse class="b" cx="1" cy="0.5" rx="1" ry="0.5" transform="translate(15 28.041)"/><circle class="b" cx="1" cy="1" r="1" transform="translate(15 15.041)"/></g><g transform="translate(37.834 20.804)"><path class="c" d="M136.954,124.15c-1.469,1.469-1.285,4.432-1.285,4.432H128.22s.157-2.964-1.285-4.432a7.58,7.58,0,1,1,10.019,0Z" transform="translate(-118.785 -103.535)"/><g transform="translate(9.199 26.674)"><path class="d" d="M188.207,407.508a.705.705,0,0,1-.708.708H181.02a.705.705,0,0,1-.708-.708h0a.705.705,0,0,1,.708-.708h6.452a.728.728,0,0,1,.734.708Z" transform="translate(-180.312 -406.8)"/><path class="d" d="M201.066,452.308a.705.705,0,0,1-.708.708H195.82a.705.705,0,0,1-.708-.708h0a.705.705,0,0,1,.708-.708h4.537a.705.705,0,0,1,.708.708Z" transform="translate(-194.142 -448.663)"/></g><g transform="translate(0)"><path class="e" d="M130.246,117.311a8.1,8.1,0,1,0-10.78.079c1.285,1.285,1.154,4.013,1.154,4.039a.627.627,0,0,0,.131.367.518.518,0,0,0,.367.157h7.422a.518.518,0,0,0,.367-.157.491.491,0,0,0,.131-.367c0-.026-.131-2.754,1.154-4.039C130.219,117.363,130.246,117.337,130.246,117.311Zm-.734-.656a.262.262,0,0,0-.1.131,6.714,6.714,0,0,0-1.364,4.2h-6.426a6.645,6.645,0,0,0-1.469-4.3,7.1,7.1,0,1,1,11.776-5.35A7.053,7.053,0,0,1,129.511,116.655Z" transform="translate(-111.683 -96.433)"/><path class="e" d="M233.21,135.2a.5.5,0,0,0,0,1,5.328,5.328,0,0,1,5.324,5.324.5.5,0,1,0,1,0A6.324,6.324,0,0,0,233.21,135.2Z" transform="translate(-220.077 -126.335)"/><path class="e" d="M181.6,400.406A1.2,1.2,0,0,0,180.4,399.2h-6.478a1.206,1.206,0,0,0,0,2.413h6.452A1.209,1.209,0,0,0,181.6,400.406Zm-1.233.21h-6.452a.21.21,0,1,1,0-.42h6.452a.207.207,0,0,1,.21.21C180.607,400.538,180.5,400.616,180.371,400.616Z" transform="translate(-164.011 -373.025)"/><path class="e" d="M193.256,444h-4.537a1.206,1.206,0,0,0,0,2.413h4.537a1.2,1.2,0,0,0,1.206-1.206A1.22,1.22,0,0,0,193.256,444Zm0,1.416h-4.537a.21.21,0,1,1,0-.42h4.537a.207.207,0,0,1,.21.21A.193.193,0,0,1,193.256,445.416Z" transform="translate(-177.841 -414.887)"/><path class="e" d="M233.709,3.855V.5a.5.5,0,1,0-1,0V3.882a.5.5,0,0,0,.5.5A.521.521,0,0,0,233.709,3.855Z" transform="translate(-220.077)"/><path class="e" d="M328.872,36.816a.5.5,0,0,0-.682.131l-1.862,2.806a.5.5,0,0,0,.131.682.506.506,0,0,0,.262.079.548.548,0,0,0,.42-.21L329,37.5A.5.5,0,0,0,328.872,36.816Z" transform="translate(-307.477 -34.324)"/><path class="e" d="M117.14,38.349a.5.5,0,0,0,.42-.761l-1.81-2.833a.495.495,0,1,0-.839.525l1.81,2.833A.5.5,0,0,0,117.14,38.349Z" transform="translate(-109.934 -32.265)"/><path class="e" d="M40.272,115.2l2.964,1.6a.39.39,0,0,0,.236.052.541.541,0,0,0,.446-.262.493.493,0,0,0-.21-.682l-2.964-1.6a.493.493,0,0,0-.682.21A.534.534,0,0,0,40.272,115.2Z" transform="translate(-40.017 -106.759)"/><path class="e" d="M380.744,117.33a.765.765,0,0,0,.236-.052l2.964-1.6a.5.5,0,0,0-.472-.892l-2.964,1.6a.5.5,0,0,0,.236.944Z" transform="translate(-357.932 -107.206)"/></g></g></g></svg>